PathFileType	4	(X/Y/Z)	6_coords_data.trc
DataRate	CameraRate	NumFrames	NumMarkers	Units	OrigDataRate	OrigDataStartFrame	OrigNumFrames
30.0	30.0	7	21	m	30.0	49	77
Frame#	Time	THUMB_TIP	THUMB_IP	THUMB_MCP	THUMB_CMC	INDEX_TIP	INDEX_DIP	INDEX_PIP	INDEX_MCP	MIDDLE_TIP	MIDDLE_DIP	MIDDLE_PIP	MIDDLE_MCP	RING_TIP	RING_DIP	RING_PIP	RING_MCP	PINKY_TIP	PINKY_DIP	PINKY_PIP	PINKY_MCP	WRIST
X1	Y1	Z1	X2	Y2	Z2	X3	Y3	Z3	X4	Y4	Z4	X5	Y5	Z5	X6	Y6	Z6	X7	Y7	Z7	X8	Y8	Z8	X9	Y9	Z9	X10	Y10	Z10	X11	Y11	Z11	X12	Y12	Z12	X13	Y13	Z13	X14	Y14	Z14	X15	Y15	Z15	X16	Y16	Z16	X17	Y17	Z17	X18	Y18	Z18	X19	Y19	Z19	X20	Y20	Z20	X21	Y21	Z21
47	1.599999999999993	0.477805395155533	-0.0409390289239937	-0.1710883916890557	0.4865738359478734	-0.036908397758562694	-0.15023489177946076	0.4793896123793945	-0.03171653106333849	-0.12039780995269472	0.47729183144310217	-0.02616976473956989	-0.07618556392862535	0.49907799008326825	-0.011170195719324205	-0.10010615160868819	0.5166684619545995	-0.015370860755719806	-0.1010703676611937	0.5351337113247833	-0.0012415068023322595	-0.11063100339093543	0.49900570960609036	0.02101864960218014	-0.11422113189292141	0.49796026311201147	-0.017615261930580717	-0.08622474887005199	0.5157815812373516	-0.014627751456362192	-0.08501008783015113	0.5374285804195558	0.003776629852319968	-0.09149820967320327	0.5038909106496923	0.03319729087642298	-0.09390597467677236	0.499959733697683	-0.007113262540407894	-0.07175695716827996	0.5179101001610085	-0.007786121497671217	-0.07022999788396461	0.5388510480498023	0.005371222181581703	-0.07315249473166963	0.5125309901378905	0.03604099369321789	-0.07199469468950498	0.5071717539781085	-0.009309350819385664	-0.053835199484856266	0.5239047078132452	-0.012559736848131275	-0.055398288290816666	0.5405408029159884	0.00024749948687141643	-0.05556277595561293	0.51685329772993	0.02669850387141426	-0.049227958191118415	0.462283081001861	-0.023011742144276925	-0.051989820119430985
48	1.6333333333333262	0.47977506207917764	-0.04103031190224471	-0.1710512273542905	0.487867800494849	-0.03697130061951759	-0.14993175737177886	0.4798700072894394	-0.03194750361512377	-0.1202734235092344	0.4774137461545569	-0.026258493939394056	-0.0760977293987089	0.4990707181940296	-0.01093733118473994	-0.1002357220874821	0.5166806375780711	-0.01504139253079817	-0.10125915735917701	0.5350694288624552	-0.0009512462675899114	-0.11102286394944116	0.49874706525087864	0.021029408476698652	-0.11436543970487434	0.4979958093701682	-0.01722347607017083	-0.08626343985552376	0.515819066185269	-0.01419528133567094	-0.08518568610215271	0.5374308931002806	0.004180332319619784	-0.09186964527221603	0.5035982831998892	0.03327632947840309	-0.09408896446152049	0.5000196072613259	-0.006474105429673749	-0.07181090815256785	0.5179761957890766	-0.007252560320812451	-0.07041271774081692	0.5388443126241386	0.0059744981736696845	-0.07353467263186808	0.5121404240128689	0.03630318150615797	-0.07219521962614173	0.5073347140893685	-0.008947938938335454	-0.0540771053816706	0.5240949701113492	-0.012017224597290488	-0.0557121294247333	0.5406198462850821	0.0009314251054712841	-0.05598223554825715	0.5165664210049271	0.02702886009849592	-0.049560392348921234	0.4622830810018609	-0.023011742144276925	-0.051989820119430985
49	1.6666666666666594	0.4825192540093113	-0.04113042455931726	-0.1709054096142819	0.4896827335042986	-0.03707510269338554	-0.14945222975467615	0.48054045208964835	-0.03229168464916199	-0.12008630388216973	0.4775882127847251	-0.026423652254412122	-0.07596442179515273	0.4994053235888267	-0.010798378537197006	-0.10037780643367011	0.5170501273109929	-0.0147183570697208	-0.10151564205922564	0.5352283655403006	-0.0005684342782542595	-0.11158247735509041	0.4985808188473647	0.020922516820600867	-0.11453754694068441	0.49845291028529515	-0.01681982261553805	-0.08622663779831996	0.5162946506258623	-0.013813194118927896	-0.08543134747199155	0.5377049593495918	0.00469433160459376	-0.09239408557907142	0.5033975118113365	0.03325021762899516	-0.09431979006607227	0.5003928203529683	-0.006084759215733815	-0.07158173862281308	0.5183851808576418	-0.006758537849528401	-0.07067565594308245	0.5390689317922623	0.006695150750618439	-0.07404621811056511	0.5117972735013983	0.036501856881519634	-0.07245318399528189	0.5077873130026367	-0.008561676365048343	-0.05444348506446223	0.5245864670624195	-0.011361366036267806	-0.05616108822600713	0.5409016968950201	0.0018475411998611913	-0.05654846935197655	0.5162723856239384	0.027364365568999238	-0.04997791751619174	0.462283081001861	-0.023011742144276925	-0.051989820119430985
50	1.6999999999999926	0.48575448206532135	-0.041120520070464406	-0.17062857365967465	0.49177609126947075	-0.03714469688780919	-0.14881268374858542	0.48126656739405105	-0.032715544748811776	-0.1198514593400491	0.4778007671689144	-0.026663690675718943	-0.07579180329194274	0.5002400836153977	-0.010920957682194032	-0.10052601860506871	0.5179492772537027	-0.014444351400402122	-0.10192964155569201	0.5356410041866879	1.5427403037837628e-05	-0.11241426973623692	0.49848942805272867	0.02070282344355867	-0.11474410445682856	0.49939337748927404	-0.016391297127485882	-0.08616711218299644	0.5172800486273303	-0.013575676713222906	-0.08579391346675003	0.5382355284487935	0.0053132198324099544	-0.09310739435758697	0.5032911798477018	0.03311246578056071	-0.0946048410376395	0.501279593847813	-0.00568057414048273	-0.07151885341125885	0.5192898699098245	-0.006337286653403829	-0.07107311262839444	0.5396208467929468	0.007574420162737905	-0.0747194493434642	0.5115442208637065	0.03660233315537886	-0.072769019205985	0.5087395983317553	-0.008185416002083445	-0.05503207891352141	0.5255759075366844	-0.010687096485969438	-0.05684323520511003	0.5414828324649805	0.003008615048297858	-0.057300667053250987	0.5160348288539187	0.027634504419366324	-0.05045609724242334	0.4622830810018609	-0.023011742144276925	-0.051989820119430985
51	1.7333333333333258	0.4893767072194195	-0.040975853041459676	-0.17018268697977904	0.4940727290568787	-0.03715278542117095	-0.1480166875014608	0.4820149890822679	-0.03317156751416428	-0.1195987211653276	0.47800833208244775	-0.026973136003183962	-0.07560535636460475	0.5017774870452256	-0.011543424515170209	-0.10054470152548939	0.5195735400147288	-0.01433955523950059	-0.10241075395752136	0.5363326681432239	0.0007865354683483927	-0.11347162360102653	0.49853313715455994	0.020346692258220722	-0.11496555043747086	0.5010228504701061	-0.01600806987283865	-0.08616719796330424	0.5189429463505008	-0.013390678975950032	-0.0863065842264173	0.5390822485742969	0.006201647907571051	-0.09404988993056357	0.5032606097173814	0.03288850015780531	-0.09492740208368688	0.5027557367574489	-0.005397456052222194	-0.07163181162372739	0.5207741374890349	-0.0059775805187638476	-0.07165809240191606	0.540520910075491	0.00868613495427728	-0.07555942550029215	0.511384826477564	0.03661176336580729	-0.07311632411153152	0.5102842383486479	-0.00796768698373529	-0.05583722993141238	0.5271899501014706	-0.00992246893998694	-0.057674547986073965	0.5424371454328959	0.00450434261781274	-0.05812417205249781	0.5158679419538589	0.027823988495223273	-0.050971900130814485	0.4622830810018609	-0.023011742144276925	-0.051989820119430985
52	1.7666666666666588	0.4932540251575046	-0.040752238750532466	-0.16951280599729504	0.4964951715617052	-0.03714358740658108	-0.1470523383827431	0.4828051883949388	-0.03367857443385258	-0.1193143131107004	0.47822152395323736	-0.027335241992944126	-0.07539800459290719	0.5042150485056904	-0.012843090152919956	-0.1003081749196818	0.5220598983330643	-0.01437105244746495	-0.10299642079104943	0.5373400377501198	0.0017531853138363918	-0.11476655796154872	0.49877364888147235	0.01981109585676799	-0.11519271574423401	0.5034983694311115	-0.01594299037965019	-0.08618893761097013	0.5213890480244421	-0.013230095391293273	-0.08693981726330557	0.5402856421376536	0.007368905015504912	-0.09518660228301273	0.5033778910916581	0.03254748569919286	-0.09525666284132289	0.5049416344000182	-0.00542949054610109	-0.0718261341076808	0.5229590010872837	-0.005649637687439646	-0.0723971270084911	0.5418104492131448	0.010083239460774496	-0.07655398389767648	0.5113627433130888	0.03650516648417468	-0.07346532532253125	0.5124538115689624	-0.007929330898714282	-0.056774380908736266	0.5294364282258364	-0.00908562666706636	-0.05857818566029893	0.5437054841460032	0.006311861587183665	-0.05892949408232151	0.5157914586587857	0.02791236200868652	-0.051505949535433415	0.4622830810018609	-0.023011742144276925	-0.051989820119430985
53	1.7999999999999918	0.4971372726766954	-0.040426498054710436	-0.1686320384544948	0.49887937750204536	-0.03711359856099905	-0.1459606960213247	0.48356316272152966	-0.034202627594385526	-0.11902076631041703	0.47841985086487826	-0.02772168419618959	-0.07518660479437334	0.5076912063617464	-0.014547929210904642	-0.10004940442717503	0.5254044640858551	-0.014376087878836263	-0.10381914863015412	0.5385747511148721	0.0029837784116119037	-0.11635662903696076	0.49917804065630833	0.019128474451857835	-0.11541636906644182	0.5070205141326986	-0.01633676856124333	-0.08637071111112937	0.5247690448667387	-0.013022888531421972	-0.087787699442339	0.5418351134059627	0.008909308528993187	-0.09657050006159623	0.503649734717119	0.03208390054184951	-0.09558914363946519	0.5079508574194249	-0.005947375204016558	-0.07219944607105305	0.5259354138677951	-0.005373935937737051	-0.07330709979098426	0.5434622022385854	0.011769855788935413	-0.07767540308150928	0.5115144778492882	0.03624896602107408	-0.0738235330696424	0.5153386833221268	-0.008122530398430916	-0.05780803351888414	0.5323693794660542	-0.008117592151532738	-0.059527150870007206	0.5452599592387672	0.00845411596487522	-0.05968032471863477	0.5158396791047072	0.027863934642756272	-0.052025946447004257	0.4622830810018609	-0.023011742144276925	-0.051989820119430985
